<svg width="176" height="32" viewBox="0 0 176 32" fill="none" xmlns="http://www.w3.org/2000/svg">
<path d="M29.3001 30.0003H27.7001L22.4001 25.1003L20.0001 27.5003C19.9001 27.6003 19.7001 27.6003 19.5001 27.5003L19.2001 27.2003C19.0001 27.0003 19.0001 26.7003 19.1001 26.5003L20.7001 24.0003L15.9001 19.5003L14.7001 18.3003L3.1001 7.60029L0.600098 1.30029L6.9001 3.90029L17.8001 15.6003L18.9001 16.8003L23.3001 21.5003L25.8001 19.9003C26.0001 19.8003 26.3001 19.8003 26.5001 20.0003L26.8001 20.3003C26.9001 20.4003 26.9001 20.6003 26.8001 20.8003L24.4001 23.2003L29.3001 28.5003V30.0003Z" fill="#02A4C5"/>
<path d="M24.3999 23.1001L29.2999 28.4001V30.0001H27.6999L22.3999 25.1001L24.3999 23.1001Z" fill="#006A80"/>
<path d="M28.5001 31.1003C29.5494 31.1003 30.4001 30.2496 30.4001 29.2003C30.4001 28.151 29.5494 27.3003 28.5001 27.3003C27.4508 27.3003 26.6001 28.151 26.6001 29.2003C26.6001 30.2496 27.4508 31.1003 28.5001 31.1003Z" fill="#06A0C0"/>
<path d="M4.90005 5.50049H4.80005H4.90005C4.80005 5.80049 4.90005 6.00049 5.10005 6.10049L21.9 22.9005L22.1 22.7005L22.3 22.5005L5.40005 5.80049C5.30005 5.60049 5.10005 5.50049 4.90005 5.50049Z" fill="#006B82"/>
<path d="M18.9 16.7005L15.9 19.6005L14.7 18.4005L17.8 15.5005L18.9 16.7005Z" fill="#006A80"/>
<path d="M11.2 27.3003L10.9 27.6003C10.8 27.7003 10.6 27.7003 10.4 27.6003L7.99995 25.1003L2.69995 30.0003H1.19995V28.4003L5.99995 23.1003L3.59995 20.7003C3.49995 20.6003 3.49995 20.4003 3.59995 20.2003L3.89995 19.9003C4.09995 19.7003 4.39995 19.7003 4.59995 19.8003L7.09995 21.4003L23.6 3.90029L29.9 1.30029L27.2999 7.60029L9.69995 24.0003L11.3 26.5003C11.4 26.8003 11.4 27.1003 11.2 27.3003Z" fill="#02A4C5"/>
<path d="M8.0001 25.1001L2.7001 30.0001H1.2001L1.1001 28.4001L6.0001 23.1001L8.0001 25.1001Z" fill="#006A80"/>
<path d="M1.9 31.1003C2.94934 31.1003 3.8 30.2496 3.8 29.2003C3.8 28.151 2.94934 27.3003 1.9 27.3003C0.850659 27.3003 0 28.151 0 29.2003C0 30.2496 0.850659 31.1003 1.9 31.1003Z" fill="#06A0C0"/>
<path d="M25.6 5.60049V5.50049V5.60049C25.3 5.50049 25.1 5.60049 25 5.80049L8.19995 22.6005L8.39995 22.8005L8.59995 23.0005L25.4 6.20049C25.5 6.00049 25.6 5.80049 25.6 5.60049Z" fill="#006B82"/>
<path fill-rule="evenodd" clip-rule="evenodd" d="M35.8002 7.70002C35.6002 7.80002 35.6002 7.90002 35.5002 9.60002C35.3002 11.7 35.2002 13.1 35.1002 13.3C35.1002 13.4 35.0002 14.1 34.9002 14.8C34.8002 15.5 34.7002 16.8 34.6002 17.6C34.5002 18.4 34.4002 19.8 34.3002 20.7C34.2002 21.5 34.1002 22.2 34.1002 22.2C34.1002 22.2 34.0002 23.1 33.8002 25.1C33.7002 26.3 33.5002 26.2 35.8002 26.2H37.8002V26C37.8002 25.9 37.9002 25.6 37.9002 25.4C37.9002 25.2 38.0002 24.3 38.1002 23.4C38.2002 22.5 38.3002 21.3 38.4002 20.6C38.5002 19.9 38.5002 19.4 38.5002 19.4C38.5002 19.4 38.9002 19.4 39.4002 19.4H40.3002L40.4002 19.7C40.6002 20.1 41.1002 21.2 41.5002 22.1C41.9002 22.8 42.0002 23.1 42.8002 24.8C43.0002 25.3 43.3002 25.8 43.3002 25.9L43.5002 26.2H46.0002C48.5002 26.2 48.4002 26.2 48.2002 25.7C48.1002 25.6 47.9002 25.1 47.7002 24.7C47.0002 23.2 45.9002 20.9 45.5002 20.1C45.1002 19.3 45.1002 19.3 45.4002 19.2C45.5002 19.1 45.8002 19 46.1002 18.8C46.4002 18.7 46.9002 18.3 47.3002 18.1C48.3002 17.6 48.2002 17.7 48.3002 16.6C48.4002 16.1 48.5002 15 48.5002 14.2C48.6002 13.4 48.7002 12.2 48.8002 11.6C48.9002 11 48.9002 10.2 48.9002 9.90002V9.30002L47.9002 8.70002C47.4002 8.40002 46.7002 8.00002 46.4002 7.80002L45.8002 7.50002H40.9002C37.8002 7.60002 35.9002 7.60002 35.8002 7.70002ZM52.2002 7.80002C52.1002 7.90002 52.0002 8.10002 52.0002 8.80002C52.0002 9.30002 51.9002 9.70002 51.9002 9.90002C51.9002 10 51.8002 10.7 51.7002 11.5C51.6002 12.3 51.6002 12.9 51.5002 13C51.5002 13 51.4002 13.5 51.4002 13.9C51.4002 14.4 51.3002 15 51.3002 15.2C51.3002 15.5 51.2002 16.2 51.1002 16.9C51.0002 18.1 50.9002 19.3 50.6002 22.3C50.5002 22.9 50.5002 23.6 50.4002 23.9C50.3002 24.6 50.3002 24.7 50.9002 25C51.2002 25.2 51.5002 25.4 51.6002 25.4C51.7002 25.5 52.2002 25.7 52.6002 26L53.4002 26.5H57.5002H61.6002L62.0002 26.3C62.2002 26.2 63.0002 25.8 63.7002 25.4C65.3002 24.6 65.1002 24.8 65.3002 23C65.4002 22.4 65.4002 21.8 65.5002 21.7C65.5002 21.6 65.6002 20.9 65.7002 20.2C65.8002 19.5 65.9002 18.3 66.0002 17.4C66.1002 16.6 66.2002 15.4 66.3002 14.8C66.4002 14.2 66.4002 13.6 66.5002 13.4C66.6002 13.1 66.6002 12.3 66.9002 9.20002C67.1002 7.40002 67.3002 7.50002 64.9002 7.50002C63.1002 7.50002 63.0002 7.50002 62.8002 7.80002C62.8002 7.80002 62.7002 8.30002 62.7002 8.90002C62.5002 11.1 62.3002 13.1 62.2002 14.1C62.1002 14.7 62.0002 15.7 62.0002 16.3C61.9002 17 61.9002 17.7 61.8002 17.9C61.8002 18.1 61.7002 19 61.6002 19.8C61.5002 20.7 61.4002 21.6 61.4002 21.9L61.3002 22.4H58.1002C54.5002 22.4 54.8002 22.5 55.0002 21.7C55.1002 21.3 55.2002 20.1 55.4002 17.3C55.5002 16.5 55.6002 15.8 55.6002 15.7C55.6002 15.6 55.7002 14.9 55.8002 14.2C55.9002 13.4 55.9002 12.8 55.9002 12.7C55.9002 12.6 56.0002 12 56.3002 9.20002C56.4002 7.80002 56.4002 7.80002 56.3002 7.70002C55.9002 7.50002 52.4002 7.60002 52.2002 7.80002ZM69.9002 7.70002C69.8002 7.80002 69.7002 8.00002 69.7002 8.70002C69.7002 9.20002 69.6002 9.70002 69.6002 10C69.6002 10.2 69.5002 11 69.4002 11.7C69.3002 12.4 69.2002 13.7 69.1002 14.5C69.0002 15.3 68.9002 16.7 68.8002 17.5C68.7002 18.3 68.6002 19 68.6002 19C68.6002 19 68.5002 19.5 68.5002 20C68.4002 20.6 68.3002 21.8 68.2002 22.6C68.1002 23.5 68.0002 24.6 67.9002 25.1C67.8002 26.3 67.6002 26.2 69.9002 26.2C72.1002 26.2 72.1002 26.2 72.1002 25.6C72.1002 25.4 72.1002 25 72.2002 24.8C72.2002 24.6 72.3002 23.8 72.4002 23.1C72.5002 22.4 72.6002 21.1 72.7002 20.3C72.8002 19.5 72.9002 18.3 73.0002 17.7C73.1002 17.1 73.2002 16.3 73.2002 16C73.2002 15.7 73.3002 15.4 73.3002 15.3C73.3002 15.2 73.4002 15.3 73.8002 16C73.9002 16.3 74.3002 17 74.7002 17.5C75.0002 18.1 75.5002 18.8 75.6002 19.1C75.8002 19.4 76.2002 20.1 76.5002 20.7C76.8002 21.3 77.2002 22 77.4002 22.2C77.5002 22.5 78.0002 23.3 78.5002 24.1C78.9002 24.9 79.4002 25.6 79.5002 25.9L79.7002 26.3H81.6002C83.2002 26.3 83.5002 26.3 83.6002 26.2C83.6002 26.1 83.7002 25.8 83.7002 25.4C83.7002 25 83.8002 24.5 83.8002 24.3C83.8002 24 83.9002 23.3 84.0002 22.6C84.1002 21.9 84.2002 20.7 84.3002 19.8C84.4002 19 84.5002 17.8 84.6002 17.2C84.7002 16.6 84.7002 15.9 84.8002 15.8C84.8002 15.7 84.9002 15 85.0002 14.3C85.1002 12.8 85.4002 10.4 85.5002 9.40002C85.7002 7.50002 85.8002 7.60002 83.5002 7.60002C81.4002 7.60002 81.5002 7.60002 81.4002 8.20002C81.4002 8.50002 81.3002 8.90002 81.3002 9.20002C81.3002 9.50002 81.2002 10.3 81.1002 11C81.0002 11.7 80.9002 12.9 80.8002 13.7C80.7002 14.5 80.6002 15.9 80.5002 16.7C80.3002 19.1 80.4002 19.1 78.9002 16.4C78.6002 15.9 78.3002 15.3 78.1002 14.9C77.9002 14.5 77.7002 14.2 77.7002 14.2C77.7002 14.2 77.3002 13.6 76.9002 12.8C75.7002 10.7 74.6002 8.80002 74.3002 8.30002C74.2002 8.00002 74.0002 7.80002 73.9002 7.70002C73.6002 7.60002 70.2002 7.50002 69.9002 7.70002ZM88.5002 7.70002C88.4002 7.80002 88.3002 8.00002 88.2002 8.90002C88.1002 10 87.8002 12.4 87.7002 14.1C87.6002 15.3 87.3002 17.6 87.1002 19.9C86.8002 22.6 86.7002 23.6 86.6002 24.2C86.6002 24.5 86.5002 25.2 86.5002 25.5V26.2H92.2002C96.1002 26.2 97.9002 26.2 97.9002 26.1C98.0002 26 98.0002 25.6 98.2002 23.5C98.2002 23.2 98.2002 23 98.2002 22.8V22.6H94.6002H91.0002L91.1002 21.9C91.1002 21.5 91.2002 21.1 91.2002 20.9C91.2002 20.7 91.3002 20.2 91.4002 19.6C91.4002 19 91.5002 18.5 91.5002 18.4C91.5002 18.3 91.8002 18.3 94.4002 18.2H97.2002L97.3002 17.8C97.6002 15.7 97.6002 14.9 97.5002 14.8C97.4002 14.7 96.7002 14.7 94.7002 14.7H92.0002L92.1002 13.7C92.1002 13.1 92.2002 12.6 92.2002 12.6C92.2002 12.5 92.3002 12.3 92.3002 12.1C92.3002 11.9 92.3002 11.6 92.3002 11.4V11.1H95.9002C97.9002 11.1 99.5002 11.1 99.6002 11C99.7002 10.9 99.8002 10.4 100 8.50002C100.1 7.70002 100.1 7.60002 99.9002 7.50002C99.5002 7.50002 88.7002 7.60002 88.5002 7.70002ZM44.6002 11.5C44.6002 11.6 44.6002 11.9 44.5002 12.1C44.5002 12.3 44.4002 13.1 44.3002 13.8C44.2002 14.5 44.2002 15.3 44.1002 15.4L44.0002 15.7H41.5002H39.0002L39.1002 14.7C39.1002 14.1 39.2002 13.6 39.2002 13.6C39.2002 13.6 39.3002 13.1 39.3002 12.6C39.3002 12.1 39.4002 11.6 39.4002 11.5V11.3H41.9002H44.4002L44.6002 11.5Z" fill="white"/>
<path fill-rule="evenodd" clip-rule="evenodd" d="M0.500098 1.30012C0.400098 1.40012 0.400098 1.70012 0.500098 1.80012C0.500098 1.80012 0.700098 2.20012 0.800098 2.50012C1.1001 3.10012 1.6001 4.20012 1.9001 4.90012C2.2001 5.40012 2.6001 6.40012 2.9001 7.20012L3.2001 8.00012L5.0001 9.70012C6.0001 10.6001 7.0001 11.6001 7.2001 11.7001C7.4001 11.9001 7.7001 12.2001 7.9001 12.4001C8.1001 12.6001 8.9001 13.4001 9.7001 14.1001C10.5001 14.8001 11.3001 15.6001 11.5001 15.8001C12.0001 16.3001 12.0001 16.2001 11.3001 16.9001C11.0001 17.2001 10.2001 18.0001 9.6001 18.7001C9.0001 19.3001 8.2001 20.2001 7.8001 20.6001L7.1001 21.3001L6.4001 20.9001C4.2001 19.5001 4.1001 19.5001 3.5001 20.2001C3.0001 20.8001 3.0001 20.8001 4.4001 22.2001C5.9001 23.7001 5.8001 23.5001 5.3001 23.9001C4.9001 24.3001 4.8001 24.5001 3.6001 25.8001C3.1001 26.4001 2.5001 27.0001 2.4001 27.1001C2.2001 27.3001 2.1001 27.4001 1.8001 27.4001C0.800098 27.4001 0.100098 28.2001 0.100098 29.2001C0.100098 31.4001 3.5001 31.6001 3.7001 29.4001L3.8001 28.9001L4.6001 28.2001C5.0001 27.8001 5.5001 27.4001 5.6001 27.3001C5.9001 27.1001 6.4001 26.6001 7.2001 25.9001C7.7001 25.4001 7.6001 25.3001 9.0001 26.8001C10.5001 28.2001 10.5001 28.3001 11.1001 27.7001C11.7001 27.1001 11.7001 27.1001 10.7001 25.6001C10.4001 25.2001 10.1001 24.7001 10.0001 24.5001L10.3001 24.0001L10.5001 23.8001C10.6001 23.7001 10.9001 23.4001 11.2001 23.1001C12.6001 21.8001 14.7001 19.9001 15.0001 19.6001C15.5001 19.2001 15.4001 19.1001 16.2001 19.9001C16.6001 20.3001 17.2001 20.8001 17.5001 21.1001C19.7001 23.1001 20.5001 23.9001 20.5001 23.9001C20.5001 23.9001 20.3001 24.2001 20.1001 24.5001C18.7001 26.8001 18.7001 26.7001 19.3001 27.4001C19.9001 28.0001 20.0001 28.0001 21.4001 26.5001C22.1001 25.8001 22.7001 25.3001 22.7001 25.3001C22.8001 25.3001 24.9001 27.1001 25.4001 27.6001C25.5001 27.7001 25.8001 28.0001 26.1001 28.2001C26.6001 28.7001 26.6001 28.7001 26.6001 29.1001C26.6001 30.0001 27.2001 30.6001 28.4001 30.6001H29.2001L29.6001 30.3001C30.9001 29.3001 30.2001 27.0001 28.6001 27.0001C28.3001 27.0001 28.2001 27.0001 28.1001 26.8001C28.0001 26.7001 27.9001 26.6001 27.8001 26.5001C27.5001 26.2001 25.9001 24.4001 25.0001 23.4001L24.8001 23.1001L26.1001 21.8001C27.6001 20.3001 27.6001 20.3001 27.0001 19.7001C26.4001 19.1001 26.3001 19.1001 24.8001 20.1001C24.1001 20.5001 23.5001 20.9001 23.5001 20.8001C23.4001 20.8001 21.9001 19.1001 19.6001 16.8001C19.2001 16.3001 18.8001 16.0001 18.8001 15.9001C18.8001 15.8001 19.4001 15.3001 21.3001 13.5001C22.0001 12.9001 22.8001 12.1001 23.3001 11.7001C23.7001 11.3001 24.3001 10.7001 24.7001 10.4001C25.0001 10.1001 25.4001 9.80012 25.5001 9.70012C25.6001 9.60012 26.1001 9.10012 26.7001 8.60012C27.3001 8.00012 27.7001 7.60012 27.8001 7.40012C27.9001 7.20012 28.0001 6.90012 28.1001 6.60012C28.2001 6.40012 28.4001 5.90012 28.5001 5.70012C28.6001 5.40012 28.8001 5.10012 28.9001 4.90012C29.0001 4.70012 29.1001 4.40012 29.2001 4.10012C29.3001 3.90012 29.5001 3.30012 29.7001 3.00012C30.6001 1.00012 30.6001 0.700122 29.6001 1.20012C28.6001 1.70012 27.8001 2.00012 26.6001 2.50012C26.2001 2.70012 25.6001 2.90012 25.2001 3.10012C24.2001 3.50012 23.9001 3.70012 23.8001 3.70012C23.7001 3.70012 23.3001 4.20012 22.8001 4.70012C22.3001 5.20012 21.4001 6.20012 20.8001 6.80012C20.2001 7.40012 19.6001 8.00012 19.5001 8.10012C19.2001 8.40012 16.8001 10.9001 16.1001 11.7001L15.5001 12.3001L15.3001 12.1001C15.2001 12.0001 14.6001 11.4001 14.1001 10.8001C13.5001 10.2001 13.0001 9.60012 12.9001 9.50012C12.8001 9.40012 12.4001 8.90012 12.0001 8.50012C11.4001 7.90012 9.8001 6.20012 8.8001 5.10012C7.7001 3.90012 7.4001 3.70012 7.0001 3.50012C6.0001 3.50012 4.5001 2.90012 3.3001 2.30012C2.9001 2.10012 2.0001 1.70012 1.5001 1.50012C1.0001 1.30012 0.600098 1.20012 0.500098 1.30012ZM104.2 7.90012C103.8 8.10012 103.2 8.50012 102.8 8.70012C102.4 8.90012 102 9.10012 101.8 9.20012L101.5 9.40012L101.4 10.3001C101.3 10.8001 101.2 11.8001 101.2 12.4001C101.1 13.0001 101.1 13.6001 101 13.6001C101 13.6001 100.9 14.2001 100.9 14.8001C100.9 15.5001 100.8 16.1001 100.7 16.3001C100.5 16.9001 100.5 16.9001 102.6 18.1001L103.7 18.7001H106.6H109.5V19.2001C109.4 19.8001 109.3 20.9001 109.2 21.7001C109.2 22.0001 109.1 22.4001 109.1 22.4001C109.1 22.5001 108.9 22.5001 106.6 22.5001H104.1L104.2 21.6001C104.3 20.4001 104.4 20.5001 102.1 20.5001C100 20.5001 100 20.5001 99.9001 21.3001C99.9001 21.6001 99.8001 22.4001 99.7001 23.0001C99.5001 24.5001 99.4001 24.3001 101.2 25.4001L102.7 26.3001H106.2H109.7L110.2 26.0001C110.5 25.8001 111.1 25.5001 111.6 25.2001C112.1 24.9001 112.6 24.7001 112.8 24.6001C113 24.5001 113.1 24.4001 113.1 24.1001C113.2 23.7001 113.3 22.1001 113.5 20.2001C113.6 19.4001 113.7 18.4001 113.7 18.0001C113.7 17.7001 113.8 17.2001 113.8 16.9001V16.5001L113.4 16.3001C113.2 16.2001 112.5 15.8001 111.9 15.4001L111 15.0001H108.1H105.2V14.5001C105.2 14.2001 105.2 14.0001 105.3 14.0001C105.3 14.0001 105.4 13.3001 105.5 12.6001L105.6 11.2001H108H110.4V12.2001V13.2001H112.4C114.8 13.2001 114.5 13.4001 114.6 11.9001C114.7 11.3001 114.7 10.6001 114.8 10.2001L114.9 9.50012L114.7 9.30012C114.5 9.10012 114.2 8.90012 113.2 8.40012C113.1 8.40012 112.8 8.20012 112.4 7.90012L111.8 7.50012H108.4H105L104.2 7.90012ZM116.4 7.70012C116.3 7.80012 116.3 7.90012 116.3 7.90012C116.3 8.00012 116.3 8.30012 116.2 8.60012C116 10.6001 115.9 11.1001 116.1 11.2001C116.2 11.2001 117.3 11.3001 118.6 11.3001H121L120.9 11.5001C120.9 11.6001 120.8 12.4001 120.7 13.2001C120.4 16.6001 120.3 17.0001 120.3 17.2001C120.3 17.3001 120.2 18.0001 120.1 18.7001C120 19.4001 119.9 20.7001 119.8 21.5001C119.7 22.4001 119.6 23.6001 119.5 24.1001C119.4 24.7001 119.4 25.3001 119.3 25.5001C119.2 26.2001 119.2 26.2001 121.4 26.2001C123.7 26.2001 123.5 26.3001 123.6 25.0001C123.6 24.5001 123.7 23.9001 123.7 23.7001C123.7 23.5001 123.8 22.7001 123.9 22.0001C124 21.3001 124.1 20.0001 124.2 19.2001C124.3 18.4001 124.4 17.0001 124.5 16.1001C124.6 15.3001 124.7 14.6001 124.7 14.6001C124.7 14.6001 124.8 14.1001 124.8 13.5001C124.9 12.9001 124.9 12.2001 125 11.9001L125.1 11.4001H127.5C129.1 11.4001 129.9 11.3001 130 11.3001C130.1 11.2001 130.2 10.4001 130.4 8.40012C130.5 7.60012 131.1 7.70012 123.4 7.70012C117.3 7.60012 116.5 7.60012 116.4 7.70012ZM135.3 7.70012C135.2 7.70012 135.1 7.80012 135.1 7.90012C135.1 7.90012 134.9 8.40012 134.6 9.00012C134.3 9.50012 134.1 10.0001 134.1 10.0001C134.1 10.0001 133.9 10.4001 133.7 10.8001C133.5 11.2001 133.2 11.8001 133.1 12.0001C133 12.2001 132.7 12.8001 132.5 13.3001C132.3 13.8001 132.1 14.2001 132.1 14.2001C132.1 14.2001 131.7 15.1001 131.2 16.1001C131.1 16.4001 130.9 16.8001 130.7 17.1001C130.6 17.4001 130.3 17.9001 130.2 18.2001C129.9 18.8001 129.8 19.0001 129.3 20.1001C129.2 20.4001 128.9 21.0001 128.7 21.5001C128.5 22.0001 128.3 22.4001 128.3 22.4001C128.3 22.4001 128.1 22.8001 127.9 23.3001C127.7 23.8001 127.5 24.2001 127.5 24.2001C127.5 24.2001 127.3 24.6001 127.1 25.1001C126.5 26.3001 126.4 26.2001 128.8 26.2001C131.1 26.2001 130.8 26.4001 131.4 24.9001C131.6 24.4001 131.9 23.7001 132.1 23.4001C132.2 23.1001 132.4 22.7001 132.5 22.6001L132.6 22.3001H135.8H139L139.3 23.6001C139.5 24.3001 139.7 25.1001 139.7 25.4001C139.9 26.2001 139.7 26.2001 141.9 26.2001C144.3 26.2001 144.1 26.4001 143.7 24.5001C143.6 24.2001 143.5 23.6001 143.4 23.2001C143.3 22.9001 143.1 22.1001 143 21.5001C142.7 20.3001 142.5 19.4001 142.3 18.6001C142.2 18.3001 142.2 18.1001 142.1 18.0001C142.1 18.0001 142 17.7001 141.9 17.4001C141.6 16.3001 141 13.7001 140.9 13.5001C140.9 13.4001 140.8 13.1001 140.7 12.8001C140.6 12.5001 140.5 11.9001 140.4 11.5001C140.3 11.1001 140.2 10.7001 140.2 10.5001C140.2 10.3001 140.1 10.1001 140.1 10.0001C140.1 9.90012 140 9.70012 140 9.50012C140 9.30012 139.9 9.00012 139.8 8.80012C139.7 8.60012 139.7 8.30012 139.6 8.00012C139.4 7.20012 139.5 7.20012 137.3 7.20012C136.3 7.60012 135.4 7.60012 135.3 7.70012ZM147.2 7.70012C147 7.80012 147 8.00012 146.8 9.50012C146.7 10.2001 146.6 11.4001 146.5 12.2001C146.4 13.0001 146.3 14.2001 146.2 14.8001C146.1 15.4001 146.1 16.1001 146 16.2001C146 16.3001 145.9 17.0001 145.8 17.7001C145.7 18.4001 145.6 19.7001 145.5 20.5001C145.4 21.3001 145.3 22.7001 145.2 23.5001C145.1 24.3001 145 25.1001 145 25.1001C145 25.2001 145 25.4001 145 25.7001V26.2001H147C148.2 26.2001 149 26.2001 149.1 26.1001C149.2 26.0001 149.2 25.7001 149.4 23.7001C149.5 23.1001 149.6 22.3001 149.6 21.9001L149.7 21.1001L150.6 20.2001L151.5 19.3001L152.3 20.4001C152.8 21.0001 153.3 21.7001 153.5 22.0001C153.7 22.3001 154 22.6001 154.1 22.9001C154.3 23.1001 154.6 23.5001 154.7 23.8001C154.9 24.0001 155.1 24.4001 155.3 24.6001C155.5 24.8001 155.8 25.2001 156 25.5001L156.4 26.1001H158.8C160.8 26.1001 161.2 26.1001 161.3 26.0001C161.4 25.8001 161.6 26.0001 158.2 21.5001C157.6 20.7001 157.1 20.0001 157 19.9001C156.9 19.8001 156.6 19.4001 156.3 18.9001C154.6 16.6001 154.4 16.3001 154.5 16.3001C154.6 16.2001 155.2 15.5001 156.5 14.2001C157.2 13.5001 157.9 12.7001 158.1 12.5001C159.2 11.3001 159.5 11.0001 160.7 9.70012C161.4 8.90012 162.1 8.30012 162.1 8.30012C162.3 8.20012 162.4 7.80012 162.4 7.70012C162.3 7.50012 162.1 7.50012 159.9 7.50012C157.7 7.50012 157.7 7.50012 157.3 7.90012C157.2 8.00012 156.6 8.60012 156.1 9.20012C155.6 9.80012 154.5 10.9001 153.8 11.6001C153.1 12.3001 152.3 13.2001 152 13.5001C151.7 13.8001 151.5 14.1001 151.4 14.1001C151.3 14.2001 151.1 14.4001 150.8 14.7001L150.3 15.2001V15.0001C150.3 14.8001 150.3 14.5001 150.4 14.3001C150.4 14.1001 150.5 13.3001 150.6 12.6001C150.7 11.9001 150.8 10.6001 150.9 9.80012C151.1 8.00012 151.1 7.80012 151 7.70012C151.1 7.60012 147.4 7.60012 147.2 7.70012ZM164.2 7.70012C164.1 7.80012 164 8.00012 164 8.10012C164 8.30012 163.9 9.60012 163.6 12.2001C163.5 13.0001 163.4 14.2001 163.3 14.8001C163.2 15.4001 163.2 16.0001 163.1 16.2001C163.1 16.4001 163 17.1001 162.9 17.7001C162.8 18.8001 162.7 20.1001 162.4 23.1001C162.3 23.7001 162.2 24.5001 162.2 24.8001C162.1 25.2001 162.1 25.6001 162.1 25.8001V26.1001H167.8C171.1 26.1001 173.5 26.1001 173.5 26.0001C173.5 26.0001 173.6 25.6001 173.6 25.3001C173.6 24.9001 173.7 24.2001 173.8 23.7001C173.9 23.2001 173.9 22.7001 173.8 22.7001C173.8 22.6001 173.3 22.6001 170.2 22.6001H166.6V22.1001C166.6 21.8001 166.7 21.1001 166.8 20.5001C166.9 19.9001 167 19.2001 167 18.9001L167.1 18.4001H169.9H172.7L172.8 18.1001C173 17.6001 173.1 15.0001 173 14.9001C172.9 14.9001 171.7 14.8001 170.2 14.8001H167.5V14.2001C167.5 13.9001 167.6 13.6001 167.6 13.5001C167.6 13.4001 167.7 12.9001 167.7 12.3001L167.8 11.2001H171.4C175.4 11.2001 175.1 11.2001 175.2 10.6001C175.5 8.10012 175.5 7.70012 175.4 7.60012C175.2 7.50012 164.4 7.60012 164.2 7.70012ZM137.2 15.1001C137.5 16.2001 137.6 16.7001 137.7 17.3001C137.8 17.6001 137.9 18.0001 137.9 18.1001C137.9 18.2001 138 18.4001 138 18.5001V18.8001H136.1H134.2L134.5 18.1001C134.7 17.7001 134.9 17.3001 134.9 17.2001C135 17.1001 135.2 16.6001 135.3 16.3001C135.5 15.9001 135.6 15.6001 135.6 15.6001C135.6 15.6001 135.8 15.2001 136 14.7001C136.2 14.2001 136.5 13.7001 136.5 13.6001C136.7 13.2001 136.7 13.2001 137.2 15.1001Z" fill="#0CA4C4"/>
</svg>
